<svg xmlns="http://www.w3.org/2000/svg" xmlns:xlink="http://www.w3.org/1999/xlink" viewBox="0 0 108 136.25" version="1.1" x="0px" y="0px"><title>tada-new-ic</title><desc>Created with Sketch.</desc><g stroke="none" stroke-width="1" fill="none" fill-rule="evenodd"><g transform="translate(-21.000000, -11.000000)"><rect x="9" y="0" width="128" height="128"/><g stroke-linecap="round" stroke-linejoin="round" transform="translate(52.000000, 88.500000) rotate(45.000000) translate(-52.000000, -88.500000) translate(20.000000, 48.000000)" fill="#000000" fill-rule="nonzero"><path d="M-0.827605882,8.82073296 C-1.83316893,8.36365885 -2.27780707,7.17795716 -1.82073296,6.17239412 C-1.36365885,5.16683107 -0.177957164,4.72219293 0.827605882,5.17926704 C7.85709614,8.37448986 18.260361,10 32,10 C45.739639,10 56.1429039,8.37448986 63.1723941,5.17926704 C64.1779572,4.72219293 65.3636588,5.16683107 65.820733,6.17239412 C66.2778071,7.17795716 65.8331689,8.36365885 64.8276059,8.82073296 C57.1904294,12.2921768 46.2603609,14 32,14 C17.7396392,14 6.8095706,12.2921768 -0.827605882,8.82073296 Z"/><path d="M32,75.9610889 L61.7140051,7.24745203 C58.6921475,3.94136327 48.6834169,2 32,2 C15.3165831,2 5.30785245,3.94136327 2.28599486,7.24745202 L32,75.9610889 Z M-1.73648628,6.00772212 C1.44973408,0.431836481 12.5667008,-2 32,-2 C51.4332991,-2 62.5502659,0.431836478 65.7364863,6.00772211 C66.048813,6.55429386 66.0855754,7.21601789 65.8357141,7.7938223 L33.8357141,81.7938223 C33.1402603,83.4020592 30.8597397,83.4020592 30.1642859,81.7938223 L-1.83571407,7.7938223 C-2.08557544,7.21601789 -2.04881299,6.55429386 -1.73648628,6.00772212 Z"/></g><path d="M119.615082,32.385915 C120.710127,32.2411742 121.715172,33.011548 121.859913,34.1065932 C122.004653,35.2016383 121.23428,36.2066834 120.139234,36.3514242 C113.8095,37.1880754 107.830833,39.5026714 102.619032,43.0778936 C101.708178,43.7027273 100.463256,43.4708613 99.8384223,42.5600064 C99.2135886,41.6491515 99.4454546,40.4042299 100.35631,39.7793962 C106.083704,35.8504843 112.657244,33.3055876 119.615082,32.385915 Z" fill="#000000" fill-rule="nonzero"/><path d="M104.615082,64.385915 C105.710127,64.2411742 106.715172,65.011548 106.859913,66.1065932 C107.004653,67.2016383 106.23428,68.2066834 105.139234,68.3514242 C98.8095002,69.1880754 92.8308326,71.5026716 87.6190328,75.0778935 C86.708178,75.7027273 85.4632564,75.4708613 84.8384227,74.5600064 C84.2135889,73.6491516 84.4454549,72.40423 85.3563098,71.7793963 C91.0837029,67.8504845 97.6572438,65.3055876 104.615082,64.385915 Z" fill="#000000" fill-rule="nonzero"/><path d="M68.9009619,52.3248601 C68.1917104,53.1716398 66.9302977,53.2831285 66.0835179,52.5738769 C65.2367382,51.8646254 65.1252495,50.6032127 65.8345011,49.7564329 C74.2900674,39.6612806 79,26.9459662 79,13.5 C79,12.3954305 79.8954305,11.5 81,11.5 C82.1045695,11.5 83,12.3954305 83,13.5 C83,27.8939693 77.9541168,41.5162431 68.9009619,52.3248601 Z" fill="#000000" fill-rule="nonzero"/><path d="M38.5804754,112.966295 L34.9545232,111.277369 C36.2957699,108.397849 37,105.250733 37,102 C37,97.3924382 35.5825877,93.0028962 32.9817212,89.3214815 L36.2486638,87.0134335 C39.3226813,91.3645729 41,96.5590115 41,102 C41,105.837273 40.1668521,109.560505 38.5804754,112.966295 Z" fill="#000000" fill-rule="nonzero"/><path d="M50.5450324,108.020045 L46.925545,106.317309 C48.94101,102.033058 50,97.3435715 50,92.5 C50,84.0840655 46.7904165,76.1769574 41.1261806,70.1827589 L44.033495,67.4354833 C50.3926595,74.1650926 54,83.0521121 54,92.5 C54,97.935322 52.8097941,103.205867 50.5450324,108.020045 Z" fill="#000000" fill-rule="nonzero"/><path d="M59.5585145,104.783385 L56.3211455,102.434035 C61.5438837,95.2371778 64.3999997,86.5864537 64.3999997,77.5 C64.3999997,69.4979598 62.1868581,61.8267684 58.0693185,55.1716588 L61.4709029,53.0670866 C65.9768698,60.3500047 68.3999997,68.7490577 68.3999997,77.5 C68.3999997,87.4375336 65.2728881,96.9090607 59.5585145,104.783385 Z" fill="#000000" fill-rule="nonzero"/><path d="M77.167512,97.7760728 L73.7576188,95.6849898 C77.2083218,90.0579875 79.3086404,83.6972823 79.8560655,77.0243336 L83.8426731,77.3513808 C83.2436325,84.6535073 80.944004,91.6178119 77.167512,97.7760728 Z" fill="#000000" fill-rule="nonzero"/><path d="M51.016193,69.1673972 C50.4387563,70.1090132 49.2073209,70.404239 48.2657049,69.8268023 C47.3240888,69.2493657 47.0288631,68.0179302 47.6062997,67.0763142 C49.7424825,63.5928775 51.3670495,59.8170097 52.4221165,55.853013 C52.7062202,54.7856055 53.8018366,54.1506124 54.8692441,54.4347161 C55.9366517,54.7188199 56.5716448,55.8144363 56.287541,56.8818438 C55.1324402,61.2216783 53.3540109,65.3551575 51.016193,69.1673972 Z" fill="#000000" fill-rule="nonzero" transform="translate(51.833143, 62.244537) rotate(-58.000000) translate(-51.833143, -62.244537) "/><circle fill="#000000" cx="58" cy="74.5" r="2"/><path d="M61.5,32 C57.9101491,32 55,29.0898509 55,25.5 C55,21.9101491 57.9101491,19 61.5,19 C65.0898509,19 68,21.9101491 68,25.5 C68,29.0898509 65.0898509,32 61.5,32 Z M61.5,28 C62.8807119,28 64,26.8807119 64,25.5 C64,24.1192881 62.8807119,23 61.5,23 C60.1192881,23 59,24.1192881 59,25.5 C59,26.8807119 60.1192881,28 61.5,28 Z" fill="#000000" fill-rule="nonzero"/><path d="M102.5,24 C98.9101491,24 96,21.0898509 96,17.5 C96,13.9101491 98.9101491,11 102.5,11 C106.089851,11 109,13.9101491 109,17.5 C109,21.0898509 106.089851,24 102.5,24 Z M102.5,20 C103.880712,20 105,18.8807119 105,17.5 C105,16.1192881 103.880712,15 102.5,15 C101.119288,15 100,16.1192881 100,17.5 C100,18.8807119 101.119288,20 102.5,20 Z" fill="#000000" fill-rule="nonzero"/><path d="M116.5,61 C112.910149,61 110,58.0898509 110,54.5 C110,50.9101491 112.910149,48 116.5,48 C120.089851,48 123,50.9101491 123,54.5 C123,58.0898509 120.089851,61 116.5,61 Z M116.5,57 C117.880712,57 119,55.8807119 119,54.5 C119,53.1192881 117.880712,52 116.5,52 C115.119288,52 114,53.1192881 114,54.5 C114,55.8807119 115.119288,57 116.5,57 Z" fill="#000000" fill-rule="nonzero"/><path d="M87,44 C87,42.8954305 87.8954305,42 89,42 C90.1045695,42 91,42.8954305 91,44 L91,52 C91,53.1045695 90.1045695,54 89,54 C87.8954305,54 87,53.1045695 87,52 L87,44 Z" fill="#000000" fill-rule="nonzero"/><path d="M85,50 C83.8954305,50 83,49.1045695 83,48 C83,46.8954305 83.8954305,46 85,46 L93,46 C94.1045695,46 95,46.8954305 95,48 C95,49.1045695 94.1045695,50 93,50 L85,50 Z" fill="#000000" fill-rule="nonzero"/><path d="M109,99 C109,97.8954305 109.895431,97 111,97 C112.104569,97 113,97.8954305 113,99 L113,107 C113,108.104569 112.104569,109 111,109 C109.895431,109 109,108.104569 109,107 L109,99 Z" fill="#000000" fill-rule="nonzero"/><path d="M107,105 C105.895431,105 105,104.104569 105,103 C105,101.895431 105.895431,101 107,101 L115,101 C116.104569,101 117,101.895431 117,103 C117,104.104569 116.104569,105 115,105 L107,105 Z" fill="#000000" fill-rule="nonzero"/><path d="M37,23 C37,21.8954305 37.8954305,21 39,21 C40.1045695,21 41,21.8954305 41,23 L41,31 C41,32.1045695 40.1045695,33 39,33 C37.8954305,33 37,32.1045695 37,31 L37,23 Z" fill="#000000" fill-rule="nonzero"/><path d="M35,29 C33.8954305,29 33,28.1045695 33,27 C33,25.8954305 33.8954305,25 35,25 L43,25 C44.1045695,25 45,25.8954305 45,27 C45,28.1045695 44.1045695,29 43,29 L35,29 Z" fill="#000000" fill-rule="nonzero"/><circle fill="#000000" cx="113" cy="75" r="2"/><circle fill="#000000" cx="120" cy="91" r="2"/><circle fill="#000000" cx="91" cy="30" r="2"/><circle fill="#000000" cx="127" cy="35" r="2"/><circle fill="#000000" cx="49" cy="16" r="2"/></g></g><text x="0" y="124" fill="#000000" font-size="5px" font-weight="bold" font-family="'Helvetica Neue', Helvetica, Arial-Unicode, Arial, Sans-serif">Created by IOHK Design Department</text><text x="0" y="129" fill="#000000" font-size="5px" font-weight="bold" font-family="'Helvetica Neue', Helvetica, Arial-Unicode, Arial, Sans-serif">from the Noun Project</text></svg>